<mxfile host="app.diagrams.net" modified="2023-07-11T07:38:41.925Z" agent="Mozilla/5.0 (Windows NT 10.0; Win64; x64; rv:109.0) Gecko/20100101 Firefox/110.0" version="21.4.0" etag="uMzs7f2V5wFvnUfuVyhR" type="github">
  <diagram name="Page-1" id="plpBi2cDo4lWb6uxsi7i">
    <mxGraphModel>
      <root>
        <mxCell id="0" />
        <mxCell id="1" parent="0" />
      </root>
    </mxGraphModel>
  </diagram>
</mxfile>
